<svg xmlns="http://www.w3.org/2000/svg" width="68" height="68" viewBox="0 0 68 68">
  <g fill="none" fill-rule="evenodd">
    <rect width="68" height="68"/>
    <circle cx="34" cy="34" r="34" fill="#FFF"/>
    <path fill="#CC092F" fill-rule="nonzero" d="M57.7056737,48.0448598 C56.4298913,48.4261682 55.2816871,49.188785 54.1334829,49.9514019 C51.9646529,51.3495327 49.5406663,52.8747664 46.4787886,52.8747664 C41.8859719,52.8747664 38.6965159,50.2056075 37.67589,45.3757009 C36.9104206,41.6897196 33.9761211,27.7084112 33.9761211,27.7084112 C32.8279169,33.4280374 31.0418215,41.6897196 30.2763521,45.3757009 C29.2557262,50.0785047 26.0662702,52.8747664 21.4734536,52.8747664 C18.4115758,52.8747664 15.9875893,51.3495327 13.8187592,49.9514019 C12.670555,49.188785 11.5223509,48.4261682 10.2465685,48.0448598 C8.97078607,47.6635514 7.56742543,47.6635514 6.29164304,48.0448598 C5.39859536,48.2990654 4.50554768,48.6803738 3.6125,49.188785 C9.22594255,60.3738318 20.4528276,68 33.8485428,68 C47.244258,68 58.9814561,60.3738318 64.5948986,49.188785 C63.7018509,48.8074766 62.8088033,48.4261682 61.9157556,48.0448598 C60.3848167,47.5364486 58.9814561,47.5364486 57.7056737,48.0448598 M34.06339,0 C15.3093888,0 0,15.1252336 0,33.9364486 C0,37.4953271 0.510312959,40.9271028 1.53093888,44.2317757 C2.29640832,43.8504673 3.18945599,43.4691589 3.95492543,43.0878505 C7.90985087,41.5626168 11.4820416,42.071028 15.0542323,44.2317757 C15.0542323,44.2317757 16.3300147,44.9943925 16.7127494,45.2485981 C18.3712665,46.2654206 19.9022054,47.282243 21.4331443,47.282243 C22.8365049,47.282243 24.2398656,46.9009346 24.8777568,44.1046729 C25.7708044,39.7831776 28.0672127,29.1065421 29.0878387,23.8953271 C29.7257299,20.8448598 29.9808863,19.0654206 30.3636211,18.0485981 C31.0015123,16.0149533 32.0221382,14.9981308 33.5530771,14.7439252 C33.5530771,14.7439252 33.8082335,14.7439252 34.06339,14.7439252 C34.3185465,14.7439252 34.4461247,14.7439252 34.4461247,14.7439252 C35.9770636,14.871028 36.9976895,16.0149533 37.6355807,18.0485981 C38.0183154,19.1925234 38.2734719,20.8448598 38.9113631,23.8953271 C39.931989,29.2336449 42.2283974,39.7831776 43.121445,44.1046729 C43.7593362,46.9009346 45.1626969,47.282243 46.5660575,47.282243 C48.0969964,47.282243 49.6279353,46.2654206 51.2864524,45.2485981 C51.6691871,44.9943925 52.9449695,44.2317757 52.9449695,44.2317757 C56.5171602,42.071028 60.0893509,41.5626168 64.0442764,43.0878505 C64.937324,43.4691589 65.7027935,43.8504673 66.4682629,44.2317757 C67.4888888,41.0542056 67.9992018,37.4953271 67.9992018,33.9364486 C68.12678,15.1252336 52.9449695,0 34.06339,0"/>
  </g>
</svg>
